<svg width="56" height="40" viewBox="0 0 56 40" fill="none" xmlns="http://www.w3.org/2000/svg">
<path d="M33.127 28.6774H23.1328V10.8286H33.127V28.6774Z" fill="#FF5F00"/>
<path d="M23.7733 19.7516C23.7733 16.1309 25.4792 12.9056 28.1358 10.8272C26.1931 9.30731 23.7414 8.40015 21.0768 8.40015C14.7687 8.40015 9.65527 13.4823 9.65527 19.7516C9.65527 26.0209 14.7687 31.103 21.0768 31.103C23.7414 31.103 26.1931 30.1959 28.1358 28.676C25.4792 26.5975 23.7733 23.3723 23.7733 19.7516Z" fill="#EB001B"/>
<path d="M46.6063 19.7516C46.6063 26.0209 41.4928 31.103 35.1847 31.103C32.5202 31.103 30.0684 30.1959 28.125 28.676C30.7823 26.5975 32.4882 23.3723 32.4882 19.7516C32.4882 16.1309 30.7823 12.9056 28.125 10.8272C30.0684 9.30731 32.5202 8.40015 35.1847 8.40015C41.4928 8.40015 46.6063 13.4823 46.6063 19.7516Z" fill="#F79E1B"/>
</svg>
