<svg width="20" height="20" viewBox="0 0 20 20" fill="none" xmlns="http://www.w3.org/2000/svg">
<g clip-path="url(#clip0_389_6916)">
<path d="M14.039 9.91309C14.0354 10.2196 13.893 10.3656 13.6806 10.4706C12.7949 10.911 11.914 11.3611 11.0259 11.7968C10.1039 12.2493 9.41492 12.9323 8.95757 13.8494C8.51954 14.7279 8.07668 15.6051 7.64226 16.486C7.52521 16.7238 7.37196 16.8963 7.08597 16.8951C6.79877 16.8939 6.65035 16.7141 6.5345 16.4788C6.10853 15.616 5.67291 14.7592 5.24815 13.8952C4.77874 12.9407 4.06919 12.2348 3.11107 11.7714C2.23862 11.3491 1.37341 10.9147 0.502162 10.4911C0.262027 10.3753 0.0906744 10.2172 0.0942946 9.93481C0.0979147 9.66089 0.264441 9.50884 0.497335 9.39541C1.34565 8.98634 2.18552 8.56278 3.03625 8.15974C4.03179 7.68792 4.76426 6.96148 5.24574 5.97077C5.66326 5.11159 6.10129 4.26207 6.52364 3.40531C6.63828 3.17121 6.79756 3.0083 7.06787 3.0083C7.33696 3.0083 7.49746 3.17 7.6133 3.4041C8.04168 4.27293 8.48213 5.13573 8.90931 6.00577C9.3751 6.95303 10.0774 7.65655 11.0259 8.12113C11.92 8.55916 12.8058 9.01289 13.6975 9.45696C13.9123 9.56435 14.039 9.72243 14.039 9.91309Z" fill="url(#paint0_linear_389_6916)"/>
<path d="M17.0157 20.0002C16.9131 19.8892 16.8251 19.8253 16.7792 19.7396C16.597 19.3969 16.4232 19.0481 16.2543 18.6982C16.0383 18.2517 15.7101 17.9199 15.2624 17.7039C14.9124 17.5349 14.5625 17.3636 14.2222 17.1777C14.1389 17.1331 14.0364 17.0209 14.0412 16.9449C14.046 16.8556 14.1413 16.7409 14.227 16.6939C14.5794 16.5008 14.9438 16.3294 15.3034 16.1496C15.7197 15.9397 16.031 15.6247 16.2386 15.2072C16.4148 14.8536 16.5849 14.4952 16.7744 14.1489C16.8226 14.0608 16.9373 13.9558 17.0205 13.957C17.105 13.957 17.2172 14.0644 17.2655 14.1525C17.4429 14.4747 17.6058 14.8066 17.7639 15.1384C17.9895 15.6139 18.3371 15.9614 18.8113 16.1882C19.1504 16.3499 19.4871 16.5153 19.8165 16.6951C19.8998 16.7409 20.0059 16.8519 20.0011 16.9255C19.9951 17.016 19.8985 17.1307 19.8117 17.179C19.4907 17.3575 19.1588 17.5205 18.8258 17.6773C18.3431 17.9054 17.9895 18.2553 17.7627 18.738C17.6034 19.0771 17.4344 19.4126 17.2583 19.7432C17.2124 19.8289 17.1219 19.8892 17.0169 19.9978L17.0157 20.0002Z" fill="url(#paint1_linear_389_6916)"/>
<path d="M17.0219 6.05411C16.9181 5.94671 16.8276 5.88517 16.7817 5.79949C16.5983 5.45678 16.4258 5.10925 16.2568 4.7581C16.0384 4.30317 15.7042 3.97012 15.2504 3.7505C14.9126 3.58759 14.5747 3.42348 14.2477 3.24127C14.1547 3.18938 14.0401 3.07112 14.0425 2.98544C14.0449 2.89735 14.162 2.78513 14.2561 2.73203C14.5904 2.54741 14.9355 2.3833 15.2782 2.21436C15.7114 2.00198 16.0312 1.67978 16.2436 1.24899C16.4101 0.912317 16.5694 0.573232 16.7504 0.245007C16.8059 0.14485 16.9121 0.0338326 17.0158 0.00607832C17.1812 -0.0373632 17.2355 0.129163 17.2958 0.249834C17.4647 0.585299 17.6337 0.919557 17.799 1.25623C18.009 1.6822 18.3263 1.99836 18.7499 2.20832C19.0926 2.37726 19.4389 2.54017 19.772 2.72479C19.8709 2.7803 20 2.90339 19.9964 2.99148C19.9928 3.08439 19.8637 3.20144 19.7623 3.25695C19.4341 3.43917 19.095 3.59966 18.7583 3.76498C18.3251 3.97736 18.0054 4.29834 17.793 4.73035C17.6192 5.08512 17.4442 5.4411 17.2596 5.78984C17.2138 5.87672 17.1245 5.93947 17.0219 6.05049V6.05411Z" fill="url(#paint2_linear_389_6916)"/>
</g>
<defs>
<linearGradient id="paint0_linear_389_6916" x1="0.0942383" y1="8.75457" x2="14.039" y2="8.75457" gradientUnits="userSpaceOnUse">
<stop stopColor="#FC8C30"/>
<stop offset="0.5" stopColor="#A1C14E"/>
<stop offset="0.74" stopColor="#67E587"/>
<stop offset="1" stopColor="#71E4E4"/>
</linearGradient>
<linearGradient id="paint1_linear_389_6916" x1="14.041" y1="16.4577" x2="20.0013" y2="16.4577" gradientUnits="userSpaceOnUse">
<stop stopColor="#FC8C30"/>
<stop offset="0.5" stopColor="#A1C14E"/>
<stop offset="0.74" stopColor="#67E587"/>
<stop offset="1" stopColor="#71E4E4"/>
</linearGradient>
<linearGradient id="paint2_linear_389_6916" x1="14.0425" y1="2.50457" x2="19.9965" y2="2.50457" gradientUnits="userSpaceOnUse">
<stop stopColor="#FC8C30"/>
<stop offset="0.5" stopColor="#A1C14E"/>
<stop offset="0.74" stopColor="#67E587"/>
<stop offset="1" stopColor="#71E4E4"/>
</linearGradient>
<clipPath id="clip0_389_6916">
<rect width="20" height="20" fill="white"/>
</clipPath>
</defs>
</svg>
