<svg width="56" height="40" viewBox="0 0 56 40" fill="none" xmlns="http://www.w3.org/2000/svg">
<path fill-rule="evenodd" clip-rule="evenodd" d="M16.9714 15.0957C16.5641 15.5836 15.9124 15.9685 15.2606 15.9135C15.1792 15.2538 15.4983 14.5528 15.8716 14.1199C16.279 13.6182 16.9918 13.2609 17.5688 13.2334C17.6367 13.9206 17.372 14.5941 16.9714 15.0957ZM17.562 16.0441C16.9879 16.0106 16.464 16.2189 16.0408 16.3871C15.7685 16.4953 15.5379 16.587 15.3625 16.587C15.1656 16.587 14.9255 16.4904 14.6559 16.382C14.3026 16.2399 13.8987 16.0775 13.4752 16.0853C12.5044 16.099 11.6015 16.6557 11.1059 17.5422C10.0876 19.3152 10.8411 21.9403 11.8255 23.3834C12.3075 24.0981 12.8846 24.8815 13.6449 24.854C13.9794 24.8412 14.22 24.7379 14.4691 24.6309C14.7558 24.5078 15.0536 24.3798 15.5186 24.3798C15.9675 24.3798 16.2523 24.5044 16.5257 24.624C16.7857 24.7378 17.0353 24.847 17.4059 24.8403C18.1934 24.8265 18.689 24.1256 19.171 23.4109C19.6912 22.6438 19.9197 21.8952 19.9544 21.7816L19.9585 21.7685C19.9577 21.7676 19.9512 21.7647 19.9399 21.7594C19.766 21.6788 18.437 21.0629 18.4242 19.4114C18.4114 18.0251 19.4784 17.3228 19.6463 17.2122L19.659 17.2039L19.6666 17.1986C18.9877 16.1815 17.9286 16.0716 17.562 16.0441ZM23.0134 24.7647V14.0512H26.9849C29.0351 14.0512 30.4675 15.4806 30.4675 17.5697C30.4675 19.6588 29.0079 21.1019 26.9306 21.1019H24.6563V24.7647H23.0134ZM24.6563 15.4531H26.5504C27.9761 15.4531 28.7907 16.2227 28.7907 17.5765C28.7907 18.9303 27.9761 19.7069 26.5436 19.7069H24.6563V15.4531ZM35.8918 23.4796C35.4573 24.318 34.5001 24.8471 33.4682 24.8471C31.9407 24.8471 30.8749 23.9263 30.8749 22.5381C30.8749 21.1637 31.9068 20.3734 33.8144 20.2566L35.8646 20.1329V19.5419C35.8646 18.6692 35.3012 18.195 34.2964 18.195C33.4682 18.195 32.864 18.6279 32.7418 19.2877H31.2618C31.3093 17.8995 32.5992 16.8893 34.3439 16.8893C36.2244 16.8893 37.4464 17.8858 37.4464 19.432V24.7647H35.9257V23.4796H35.8918ZM33.9095 23.5758C33.0337 23.5758 32.477 23.1497 32.477 22.4969C32.477 21.8234 33.0133 21.4317 34.0384 21.3699L35.8646 21.2531V21.8578C35.8646 22.8611 35.0228 23.5758 33.9095 23.5758ZM42.4905 25.1839C41.832 27.0599 41.0784 27.6784 39.4763 27.6784C39.3541 27.6784 38.9467 27.6647 38.8517 27.6372V26.3521C38.9535 26.3659 39.2047 26.3796 39.3337 26.3796C40.0601 26.3796 40.4674 26.0704 40.7186 25.2663L40.868 24.7922L38.0846 16.9924H39.8021L41.7369 23.3216H41.7709L43.7057 16.9924H45.3757L42.4905 25.1839Z" fill="#1A1A1A"/>
</svg>
