<svg width="56" height="40" viewBox="0 0 56 40" fill="none" xmlns="http://www.w3.org/2000/svg">
<path d="M24.8641 27.1856H21.1357L23.4677 13.6516H27.1958L24.8641 27.1856Z" fill="#1434CB"/>
<path d="M38.3793 13.9824C37.6439 13.7086 36.4775 13.4062 35.0353 13.4062C31.3534 13.4062 28.7607 15.2491 28.7448 17.8838C28.7142 19.8277 30.6011 20.9073 32.0124 21.5555C33.4548 22.2178 33.9451 22.6501 33.9451 23.2404C33.9304 24.1471 32.7796 24.5651 31.7061 24.5651C30.2176 24.5651 29.42 24.3496 28.208 23.8451L27.717 23.6289L27.1953 26.667C28.0697 27.0409 29.6808 27.3728 31.3534 27.3873C35.2654 27.3873 37.8123 25.573 37.8425 22.7653C37.8574 21.2246 36.861 20.0441 34.7129 19.0794C33.4089 18.4602 32.6103 18.0426 32.6103 17.409C32.6256 16.833 33.2858 16.243 34.7578 16.243C35.9698 16.2141 36.8604 16.4876 37.535 16.7612L37.8722 16.905L38.3793 13.9824Z" fill="#1434CB"/>
<path fill-rule="evenodd" clip-rule="evenodd" d="M45.053 13.6516H47.9369L50.9447 27.1854H47.4927C47.4927 27.1854 47.1548 25.6304 47.0478 25.1553H42.2609C42.1225 25.515 41.4784 27.1854 41.4784 27.1854H37.5664L43.1044 14.7745C43.4881 13.8962 44.1637 13.6516 45.053 13.6516ZM44.8233 18.6043C44.8233 18.6043 43.6419 21.6135 43.3348 22.391H46.4338C46.2805 21.7143 45.5744 18.4747 45.5744 18.4747L45.3139 17.3086C45.2042 17.6089 45.0455 18.0217 44.9384 18.3002C44.8659 18.489 44.8171 18.616 44.8233 18.6043Z" fill="#1434CB"/>
<path fill-rule="evenodd" clip-rule="evenodd" d="M4.98129 13.6516H10.9798C11.7929 13.6801 12.4526 13.9249 12.6673 14.7893L13.9708 21.007C13.971 21.0076 13.9712 21.0082 13.9714 21.0088L14.3704 22.8805L18.0216 13.6516H21.964L16.1038 27.1713H12.1612L8.8381 15.4115C7.69153 14.7823 6.38297 14.2762 4.91992 13.9251L4.98129 13.6516Z" fill="#1434CB"/>
</svg>
